<?xml version="1.0" standalone="no"?>
<!DOCTYPE svg PUBLIC "-//W3C//DTD SVG 20010904//EN"
 "http://www.w3.org/TR/2001/REC-SVG-20010904/DTD/svg10.dtd">
<svg version="1.0" xmlns="http://www.w3.org/2000/svg"
 width="512.000000pt" height="492.000000pt" viewBox="0 0 512.000000 492.000000"
 preserveAspectRatio="xMidYMid meet">

<g transform="translate(0.000000,492.000000) scale(0.100000,-0.100000)"
fill="#000000" stroke="none">
<path d="M1712 4907 c-32 -15 -662 -1271 -662 -1319 0 -18 138 -818 307 -1778
l307 -1745 32 -33 32 -32 846 0 c913 0 886 -2 914 52 6 12 152 817 323 1788
l311 1765 -321 642 c-275 550 -325 645 -350 658 -26 13 -135 15 -873 14 -604
0 -850 -4 -866 -12z m1547 -424 c36 -35 423 -955 423 -1006 -1 -51 -531 -2989
-544 -3015 -27 -52 -30 -52 -562 -52 l-494 0 -31 25 c-16 14 -32 34 -35 43
-12 37 -536 2976 -536 3003 0 27 375 940 406 987 8 13 25 27 37 32 12 5 311 9
664 9 l643 1 29 -27z"/>
<path d="M1861 3890 c-94 -225 -171 -418 -171 -430 0 -18 492 -2774 505 -2828
l5 -22 383 2 382 3 252 1405 c139 773 253 1419 254 1435 0 18 -68 194 -170
435 l-170 405 -549 3 -549 2 -172 -410z"/>
</g>
</svg>
