<?xml version="1.0" standalone="no"?>
<!DOCTYPE svg PUBLIC "-//W3C//DTD SVG 20010904//EN"
 "http://www.w3.org/TR/2001/REC-SVG-20010904/DTD/svg10.dtd">
<svg version="1.0" xmlns="http://www.w3.org/2000/svg"
 width="600.000000pt" height="600.000000pt" viewBox="0 0 600.000000 600.000000"
 preserveAspectRatio="xMidYMid meet">

<g transform="translate(0.000000,600.000000) scale(0.100000,-0.100000)"
fill="#000000" stroke="none">
<path d="M2941 4676 c-111 -40 -363 -325 -451 -510 -72 -153 -97 -290 -81
-442 12 -118 46 -217 131 -384 37 -74 75 -160 84 -190 24 -80 23 -198 -3 -247
-44 -88 -143 -142 -233 -129 -96 15 -181 95 -193 183 -16 114 -45 172 -103
206 -45 26 -125 27 -177 2 -99 -49 -220 -290 -255 -508 -16 -97 -8 -333 15
-437 110 -505 490 -900 994 -1033 110 -29 126 -30 316 -31 158 -1 218 3 285
17 513 110 912 491 1042 996 25 98 31 141 35 281 7 220 -17 352 -99 533 -99
220 -219 368 -496 610 -141 125 -229 223 -318 358 -112 170 -190 348 -245 558
-25 97 -66 148 -135 169 -50 14 -69 14 -113 -2z m8 -624 c43 -97 108 -212 183
-324 113 -170 200 -266 398 -440 256 -224 375 -393 427 -604 23 -97 23 -285
-1 -389 -83 -364 -355 -647 -713 -742 -128 -34 -325 -38 -448 -9 -432 99 -738
455 -771 896 -4 49 -3 90 1 90 4 0 36 -18 71 -40 95 -60 171 -83 294 -88 159
-6 292 36 406 130 158 129 232 304 221 518 -8 151 -35 240 -131 435 -46 94
-89 194 -96 224 -17 74 -8 183 20 251 25 57 91 170 100 170 3 0 20 -35 39 -78z"/>
</g>
</svg>
