<?xml version="1.0" standalone="no"?>
<!DOCTYPE svg PUBLIC "-//W3C//DTD SVG 20010904//EN"
 "http://www.w3.org/TR/2001/REC-SVG-20010904/DTD/svg10.dtd">
<svg version="1.0" xmlns="http://www.w3.org/2000/svg"
 width="512.000000pt" height="492.000000pt" viewBox="0 0 512.000000 492.000000"
 preserveAspectRatio="xMidYMid meet">

<g transform="translate(0.000000,492.000000) scale(0.100000,-0.100000)"
fill="#000000" stroke="none">
<path d="M2340 4904 c-315 -22 -595 -55 -840 -100 -499 -92 -1006 -278 -1275
-469 -83 -59 -96 -76 -97 -123 0 -35 52 -133 412 -764 227 -398 422 -733 433
-745 28 -31 77 -39 117 -18 40 21 65 76 52 114 -8 22 -132 243 -418 742 -8 14
99 163 159 222 484 475 1815 757 3574 757 l321 0 26 31 c34 40 35 97 3 135
-20 23 -40 30 -153 50 -310 57 -778 117 -1159 150 -179 15 -1008 28 -1155 18z"/>
<path d="M2755 4099 c-272 -30 -543 -162 -759 -368 -451 -431 -782 -1240 -851
-2083 -8 -103 -22 -227 -30 -275 -38 -224 -119 -489 -248 -818 -86 -221 -113
-300 -127 -374 -13 -67 1 -122 37 -150 l26 -21 2087 0 2087 0 26 26 c31 31 41
71 32 132 -10 72 -25 119 -123 372 -192 500 -257 752 -282 1093 -28 387 -90
706 -198 1027 -243 721 -632 1199 -1120 1374 -159 57 -391 84 -557 65z m393
-638 c414 -103 729 -419 833 -832 27 -107 36 -316 19 -431 -34 -235 -147 -456
-322 -629 l-78 -78 0 -198 c-1 -270 6 -263 -244 -263 l-166 0 0 73 c0 67 -2
75 -27 99 -36 33 -69 40 -108 24 -50 -21 -65 -51 -65 -129 l0 -68 -102 3 -103
3 -3 65 c-3 79 -15 104 -59 125 -27 13 -40 14 -68 5 -56 -19 -75 -51 -75 -132
l0 -69 -176 3 -176 3 -29 33 -29 32 0 197 0 196 -88 91 c-48 50 -109 123 -135
163 -179 270 -232 617 -141 929 118 410 462 719 889 799 113 21 342 14 453
-14z"/>
<path d="M2334 2461 c-104 -26 -164 -116 -164 -245 0 -84 22 -152 73 -228 74
-111 176 -159 294 -137 107 20 177 70 219 156 66 134 16 270 -136 371 -100 67
-215 101 -286 83z"/>
<path d="M3311 2455 c-79 -22 -147 -62 -217 -128 -84 -78 -107 -127 -102 -215
2 -37 12 -84 22 -104 66 -137 253 -201 389 -134 170 83 254 351 157 498 -53
80 -147 111 -249 83z"/>
</g>
</svg>
